<svg width="16" height="16" viewBox="0 0 16 16" fill="none" xmlns="http://www.w3.org/2000/svg">
<path d="M13 8C13 5.23858 10.7614 3 8 3C7.32207 3 6.67566 3.13492 6.08614 3.37937C5.78177 3.50558 5.49256 3.66099 5.22202 3.84211C4.94935 4.02464 4.69564 4.23329 4.46447 4.46447C4.23329 4.69564 4.02464 4.94935 3.84211 5.22202M3 8C3 10.7614 5.23858 13 8 13C8.67793 13 9.32434 12.8651 9.91386 12.6206C10.2182 12.4944 10.5074 12.339 10.778 12.1579C11.0506 11.9754 11.3044 11.7667 11.5355 11.5355C11.7667 11.3044 11.9754 11.0506 12.1579 10.778" stroke="#86909C" stroke-width="1.5" stroke-linecap="round" stroke-linejoin="round"/>
<path d="M13 3.55557V8.00002" stroke="#86909C" stroke-width="1.5" stroke-linecap="round" stroke-linejoin="round"/>
<path d="M3 8L3 12.4444" stroke="#86909C" stroke-width="1.5" stroke-linecap="round" stroke-linejoin="round"/>
</svg>
